<?xml version="1.0" encoding="UTF-8"?>
<svg id="Layer_2" data-name="Layer 2" xmlns="http://www.w3.org/2000/svg" viewBox="0 0 589.93 410.42">
  <defs>
    <style>
      .cls-1 {
        fill: #1f75ff;
        stroke: #231f20;
        stroke-width: 8px;
      }

      .cls-1, .cls-2 {
        stroke-miterlimit: 10;
      }

      .cls-2 {
        fill: #fff;
        stroke: #1d2124;
        stroke-width: 11px;
      }
    </style>
  </defs>
  <g id="Objects">
    <g id="centre-puzzle-block-svg">
      <path class="cls-2" d="M328.36,5.51s90.02-.03,137.28,0c15.6,0,28.24,12.65,28.24,28.25,0,46.97,0,136.14,0,136.14-.12,5.73,4.92,10.78,10.65,10.66,2.96,0,5.82-1.25,7.86-3.45,15.37-17.31,44.22-17.9,60.16-1.06,16.06,15.69,15.84,43.56-.67,58.91-16.06,16.25-44.4,15.49-59.5-1.63-1.01-1.1-2.21-1.96-3.56-2.54-7.08-3.28-15.06,2.49-14.96,10.15,0,0,0,72.04,0,120.6,0,23.95-19.4,43.37-43.35,43.37-76.81.03-235.91-.01-312.68-.02-23.95,0-43.36-19.42-43.36-43.37,0-48.94.05-121.8.02-121.83,0-4.01-2.33-7.78-6.08-9.2-3.79-1.44-7.9-.35-10.47,2.48-7.86,8.76-19.12,13.78-30.89,13.78-22.55.46-42.33-19.56-41.53-42.14-.15-22.22,19.97-41.76,42.19-40.94,11.5.18,22.53,5.19,30.24,13.77,1.78,1.97,4.34,3.1,7.03,3.1,5.15.1,9.6-4.37,9.51-9.5.02-.04-.03-90.03,0-137.29,0-15.6,12.65-28.24,28.25-28.24,47.25,0,137.29,0,137.29,0h68.33Z"/>
      <g>
        <path class="cls-1" d="M278.12,128.3c12.4,0,22.46,9.84,22.46,21.97s-10.06,21.97-22.46,21.97h-67.38c-12.4,0-22.46-9.84-22.46-21.97,0-12.14,10.06-21.97,22.46-21.97h67.38Z"/>
        <path class="cls-1" d="M255.66,183.24c12.4,0,22.46,9.84,22.46,21.97s-10.06,21.97-22.46,21.97h-44.92c-12.4,0-22.46-9.84-22.46-21.97,0-12.14,10.06-21.97,22.46-21.97h44.92Z"/>
        <path class="cls-1" d="M323.04,238.17c12.4,0,22.46,9.84,22.46,21.97s-10.06,21.97-22.46,21.97h-112.29c-12.4,0-22.46-9.84-22.46-21.97,0-12.14,10.06-21.97,22.46-21.97h112.29Z"/>
        <path class="cls-1" d="M334.27,172.25c-12.4,0-22.46-9.84-22.46-21.97s10.06-21.97,22.46-21.97c12.4,0,22.46,9.84,22.46,21.97s-10.06,21.97-22.46,21.97Z"/>
        <path class="cls-1" d="M311.81,227.19c-12.4,0-22.46-9.84-22.46-21.97s10.06-21.97,22.46-21.97,22.46,9.84,22.46,21.97-10.06,21.97-22.46,21.97Z"/>
        <path class="cls-1" d="M379.19,282.12c-12.4,0-22.46-9.84-22.46-21.97s10.06-21.97,22.46-21.97,22.46,9.84,22.46,21.97-10.06,21.97-22.46,21.97Z"/>
      </g>
    </g>
  </g>
</svg>