<?xml version="1.0" encoding="UTF-8"?>
<svg id="Layer_2" data-name="Layer 2" xmlns="http://www.w3.org/2000/svg" viewBox="0 0 409.38 409.82">
  <defs>
    <style>
      .cls-1 {
        fill: none;
      }

      .cls-1, .cls-2 {
        stroke: #000;
        stroke-linecap: round;
        stroke-linejoin: round;
      }

      .cls-1, .cls-2, .cls-3 {
        stroke-width: 10px;
      }

      .cls-2 {
        fill: #1f75ff;
      }

      .cls-3 {
        fill: #fff;
        stroke: #1d2124;
        stroke-miterlimit: 10;
      }
    </style>
  </defs>
  <g id="Objects">
    <g id="left-puzzle-block-svg">
      <path class="cls-3" d="M240.02,5h104.6c33.01,0,59.77,26.76,59.77,59.77v106.19c0,.52-.25.84-.41,1-.15.15-.49.41-1.01.41-.41,0-.78-.16-1.03-.43-9.21-10.24-22.38-16.23-36.13-16.44-13.22-.2-25.76,4.79-35.31,14.07-9.54,9.27-14.9,21.64-15.09,34.85,0,.24,0,.48,0,.71,0,13.14,5.06,25.49,14.29,34.85,9.4,9.53,21.95,14.78,35.33,14.78,14.06,0,27.52-6,36.89-16.44.25-.28.65-.45,1.04-.45.79,0,1.42.64,1.42,1.43v105.76c0,33.01-26.76,59.77-59.77,59.77H64.77c-33.01,0-59.77-26.76-59.77-59.77V64.77C5,31.76,31.76,5,64.77,5h175.25Z"/>
      <g>
        <polygon class="cls-2" points="184.69 140.38 100.52 185.27 184.69 230.16 268.86 185.27 184.69 140.38"/>
        <path class="cls-1" d="M134.19,203.23v38.16c0,12.34,22.45,28.06,50.5,28.06s50.5-15.71,50.5-28.06v-38.16"/>
        <line class="cls-1" x1="268.86" y1="185.27" x2="268.86" y2="258.22"/>
      </g>
    </g>
  </g>
</svg>