<?xml version="1.0" encoding="UTF-8"?>
<svg id="Layer_2" data-name="Layer 2" xmlns="http://www.w3.org/2000/svg" viewBox="0 0 409.46 409.44">
  <defs>
    <style>
      .cls-1 {
        fill: #231f20;
      }

      .cls-2 {
        stroke-width: 2px;
      }

      .cls-2, .cls-3 {
        stroke: #1d2124;
        stroke-miterlimit: 10;
      }

      .cls-4, .cls-3 {
        fill: #fff;
      }

      .cls-5 {
        fill: #1f75ff;
      }

      .cls-3 {
        stroke-width: 10px;
      }
    </style>
  </defs>
  <g id="Objects">
    <g id="right-puzzle-block-svg">
      <path class="cls-3" d="M238.9,5h122.09c23.99,0,43.43,19.43,43.45,43.41.06,76.82-.03,235.82-.04,312.56,0,23.98-19.42,43.41-43.4,43.44-76.81.08-235.77.03-312.56-.05-23.98-.02-43.4-19.47-43.4-43.45,0-48.6,0-120.69,0-120.69-.07-2.38,2.85-3.74,4.48-1.93,46.69,47.66,117.16-19.55,71.87-68.44-18.92-20.09-53.62-19.39-71.86,1.25-1.5,1.67-4.47.73-4.49-1.73.05-.08-.05-72.26-.03-120.93,0-23.99,19.46-43.44,43.45-43.44,49.01,0,122.11,0,122.11,0h68.34Z"/>
      <g>
        <g>
          <ellipse class="cls-5" cx="282.21" cy="123.14" rx="22.14" ry="21.4"/>
          <path class="cls-4" d="M274.2,136c.45.28.95.4,1.44.4.95,0,1.87-.48,2.42-1.32.81-1.3.37-2.99-.95-3.78-2.96-1.74-4.74-4.88-4.66-8.2.11-4.83,4.18-7.47,4.34-7.58,1.29-.83,1.67-2.53.82-3.82-.84-1.27-2.6-1.63-3.89-.79-.69.44-6.72,4.51-6.89,12.07-.11,5.25,2.71,10.24,7.38,13.01Z"/>
        </g>
        <path class="cls-2" d="M309,134.46c1.56-3.39,2.46-7.1,2.46-11.02,0-15.22-13.12-27.62-29.25-27.62-12.08,0-22.45,6.94-26.93,16.83h-103.85c-1.97,0-3.55,1.55-3.55,3.48v181.44c0,1.93,1.59,3.48,3.55,3.48h148.93c1.97,0,3.55-1.55,3.55-3.48v-113.72l5.16,6.48c.69.86,1.73,1.35,2.79,1.35.31,0,.59-.05.9-.12,1.37-.35,2.39-1.46,2.61-2.85l2.53-16.41,15.06,2.07c1.44.19,2.84-.49,3.58-1.72.73-1.23.62-2.76-.28-3.88l-27.26-34.3ZM282.21,102.78c12.22,0,22.14,9.26,22.14,20.66s-9.95,20.66-22.14,20.66-22.14-9.26-22.14-20.66,9.92-20.66,22.14-20.66ZM242.73,159.3h-59.21v-12.07h65.77l-6.56,12.07ZM260.33,141.7c4.62,4.92,11.06,8.29,18.31,9.12,0,.26.02.51.07.74l-14.8,27.27-3.15-9.1c-.62-1.79-2.58-2.76-4.43-2.2l-12.03,3.67,16.03-29.5ZM296.8,294.06h-141.82V119.59h98.29c-.19,1.25-.31,2.53-.31,3.83,0,4.22,1.04,8.22,2.84,11.81l-2.72,5.01h-73.11c-1.97,0-3.55,1.55-3.55,3.48v19.03c0,1.93,1.59,3.48,3.55,3.48h58.97l-4.97,9.14c-.69,1.25-.52,2.76.4,3.85s2.42,1.53,3.79,1.11l16.98-5.18,4.67,13.51c.45,1.32,1.66,2.25,3.08,2.34h.28c1.3,0,2.51-.7,3.13-1.83l17.01-31.28,13.48,16.97v119.2h.02ZM315.42,164.91c-1.92-.26-3.72,1.04-4,2.92l-1.82,11.81-22.62-28.45.33-.6c7.11-1.18,13.33-4.78,17.67-9.86l20.3,25.53-9.85-1.35Z"/>
        <g>
          <path d="M278.47,193.96h-109.66c-1.97,0-3.55,1.55-3.55,3.48s1.59,3.48,3.55,3.48h109.66c1.97,0,3.55-1.55,3.55-3.48s-1.61-3.48-3.55-3.48Z"/>
          <path class="cls-1" d="M278.47,201.52h-109.66c-2.3,0-4.17-1.83-4.17-4.08s1.87-4.08,4.17-4.08h109.66c2.3,0,4.17,1.83,4.17,4.08s-1.87,4.08-4.17,4.08ZM168.81,194.56c-1.62,0-2.94,1.29-2.94,2.88s1.32,2.88,2.94,2.88h109.66c1.62,0,2.94-1.29,2.94-2.88s-1.32-2.88-2.94-2.88h-109.66Z"/>
        </g>
        <g>
          <path d="M278.44,229.72h-109.66c-1.97,0-3.55,1.55-3.55,3.48s1.59,3.48,3.55,3.48h109.66c1.97,0,3.55-1.55,3.55-3.48s-1.59-3.48-3.55-3.48Z"/>
          <path class="cls-1" d="M278.44,237.28h-109.66c-2.3,0-4.17-1.83-4.17-4.08s1.87-4.08,4.17-4.08h109.66c2.3,0,4.17,1.83,4.17,4.08s-1.87,4.08-4.17,4.08ZM168.79,230.32c-1.62,0-2.94,1.29-2.94,2.88s1.32,2.88,2.94,2.88h109.66c1.62,0,2.94-1.29,2.94-2.88s-1.32-2.88-2.94-2.88h-109.66Z"/>
        </g>
        <g>
          <path d="M277.28,260.45h-109.66c-1.97,0-3.55,1.55-3.55,3.48s1.59,3.48,3.55,3.48h109.66c1.97,0,3.55-1.55,3.55-3.48s-1.59-3.48-3.55-3.48Z"/>
          <path class="cls-1" d="M277.28,268.01h-109.66c-2.3,0-4.17-1.83-4.17-4.08s1.87-4.08,4.17-4.08h109.66c2.3,0,4.17,1.83,4.17,4.08s-1.87,4.08-4.17,4.08ZM167.63,261.05c-1.62,0-2.94,1.29-2.94,2.88s1.32,2.88,2.94,2.88h109.66c1.62,0,2.94-1.29,2.94-2.88s-1.32-2.88-2.94-2.88h-109.66Z"/>
        </g>
      </g>
    </g>
  </g>
</svg>